<?xml version="1.0" encoding="UTF-8" standalone="no"?>
<!DOCTYPE svg PUBLIC "-//W3C//DTD SVG 1.1//EN"
 "http://www.w3.org/Graphics/SVG/1.1/DTD/svg11.dtd">
<!-- Generated by graphviz version 6.0.1 (20220911.1526)
 -->
<!-- Title: grph Pages: 1 -->
<svg width="1286pt" height="188pt"
 viewBox="0.00 0.00 1286.00 188.00" xmlns="http://www.w3.org/2000/svg" xmlns:xlink="http://www.w3.org/1999/xlink">
<g id="graph0" class="graph" transform="scale(1 1) rotate(0) translate(4 184)">
<title>grph</title>
<polygon fill="white" stroke="none" points="-4,4 -4,-184 1282,-184 1282,4 -4,4"/>
<!-- nodo0 -->
<g id="node1" class="node">
<title>nodo0</title>
<ellipse fill="none" stroke="black" cx="654" cy="-162" rx="119.68" ry="18"/>
<text text-anchor="middle" x="654" y="-158.3" font-family="Times,serif" font-size="14.00">&lt;LISTA_INSTRUCCIONES&gt;</text>
</g>
<!-- nodo1 -->
<g id="node2" class="node">
<title>nodo1</title>
<ellipse fill="none" stroke="black" cx="181" cy="-90" rx="84.49" ry="18"/>
<text text-anchor="middle" x="181" y="-86.3" font-family="Times,serif" font-size="14.00">&lt;DECLARACION&gt;</text>
</g>
<!-- nodo0&#45;&gt;nodo1 -->
<g id="edge1" class="edge">
<title>nodo0&#45;&gt;nodo1</title>
<path fill="none" stroke="black" d="M571.88,-148.85C483.71,-135.8 344.68,-115.22 258.38,-102.45"/>
<polygon fill="black" stroke="black" points="258.79,-98.97 248.39,-100.97 257.77,-105.9 258.79,-98.97"/>
</g>
<!-- nodo5 -->
<g id="node6" class="node">
<title>nodo5</title>
<ellipse fill="none" stroke="black" cx="405" cy="-90" rx="84.49" ry="18"/>
<text text-anchor="middle" x="405" y="-86.3" font-family="Times,serif" font-size="14.00">&lt;DECLARACION&gt;</text>
</g>
<!-- nodo0&#45;&gt;nodo5 -->
<g id="edge5" class="edge">
<title>nodo0&#45;&gt;nodo5</title>
<path fill="none" stroke="black" d="M600.28,-145.9C560.04,-134.59 505.04,-119.12 463.66,-107.49"/>
<polygon fill="black" stroke="black" points="464.55,-104.11 453.98,-104.77 462.66,-110.85 464.55,-104.11"/>
</g>
<!-- nodo9 -->
<g id="node10" class="node">
<title>nodo9</title>
<ellipse fill="none" stroke="black" cx="654" cy="-90" rx="84.49" ry="18"/>
<text text-anchor="middle" x="654" y="-86.3" font-family="Times,serif" font-size="14.00">&lt;DECLARACION&gt;</text>
</g>
<!-- nodo0&#45;&gt;nodo9 -->
<g id="edge9" class="edge">
<title>nodo0&#45;&gt;nodo9</title>
<path fill="none" stroke="black" d="M654,-143.7C654,-135.98 654,-126.71 654,-118.11"/>
<polygon fill="black" stroke="black" points="657.5,-118.1 654,-108.1 650.5,-118.1 657.5,-118.1"/>
</g>
<!-- nodo13 -->
<g id="node14" class="node">
<title>nodo13</title>
<ellipse fill="none" stroke="black" cx="861" cy="-90" rx="84.49" ry="18"/>
<text text-anchor="middle" x="861" y="-86.3" font-family="Times,serif" font-size="14.00">&lt;DECLARACION&gt;</text>
</g>
<!-- nodo0&#45;&gt;nodo13 -->
<g id="edge13" class="edge">
<title>nodo0&#45;&gt;nodo13</title>
<path fill="none" stroke="black" d="M700.2,-145.38C732.19,-134.56 774.85,-120.13 808.19,-108.86"/>
<polygon fill="black" stroke="black" points="809.42,-112.14 817.77,-105.62 807.18,-105.51 809.42,-112.14"/>
</g>
<!-- nodo17 -->
<g id="node18" class="node">
<title>nodo17</title>
<ellipse fill="none" stroke="black" cx="1115" cy="-90" rx="84.49" ry="18"/>
<text text-anchor="middle" x="1115" y="-86.3" font-family="Times,serif" font-size="14.00">&lt;DECLARACION&gt;</text>
</g>
<!-- nodo0&#45;&gt;nodo17 -->
<g id="edge17" class="edge">
<title>nodo0&#45;&gt;nodo17</title>
<path fill="none" stroke="black" d="M734.83,-148.73C820.44,-135.73 954.57,-115.36 1038.5,-102.62"/>
<polygon fill="black" stroke="black" points="1039.12,-106.06 1048.48,-101.1 1038.07,-99.14 1039.12,-106.06"/>
</g>
<!-- nodo2 -->
<g id="node3" class="node">
<title>nodo2</title>
<ellipse fill="none" stroke="black" cx="27" cy="-18" rx="27" ry="18"/>
<text text-anchor="middle" x="27" y="-14.3" font-family="Times,serif" font-size="14.00">int</text>
</g>
<!-- nodo1&#45;&gt;nodo2 -->
<g id="edge2" class="edge">
<title>nodo1&#45;&gt;nodo2</title>
<path fill="none" stroke="black" d="M146.07,-73.52C122.54,-63.04 90.84,-48.83 63,-36 61.21,-35.18 59.37,-34.32 57.52,-33.46"/>
<polygon fill="black" stroke="black" points="58.83,-30.21 48.29,-29.14 55.86,-36.55 58.83,-30.21"/>
</g>
<!-- nodo3 -->
<g id="node4" class="node">
<title>nodo3</title>
<ellipse fill="none" stroke="black" cx="116" cy="-18" rx="44.39" ry="18"/>
<text text-anchor="middle" x="116" y="-14.3" font-family="Times,serif" font-size="14.00">varible_1</text>
</g>
<!-- nodo1&#45;&gt;nodo3 -->
<g id="edge3" class="edge">
<title>nodo1&#45;&gt;nodo3</title>
<path fill="none" stroke="black" d="M165.27,-72.05C157.08,-63.24 146.95,-52.33 138,-42.69"/>
<polygon fill="black" stroke="black" points="140.51,-40.25 131.14,-35.31 135.38,-45.02 140.51,-40.25"/>
</g>
<!-- nodo4 -->
<g id="node5" class="node">
<title>nodo4</title>
<ellipse fill="none" stroke="black" cx="205" cy="-18" rx="27" ry="18"/>
</g>
<!-- nodo1&#45;&gt;nodo4 -->
<g id="edge4" class="edge">
<title>nodo1&#45;&gt;nodo4</title>
<path fill="none" stroke="black" d="M186.93,-71.7C189.68,-63.7 192.99,-54.02 196.03,-45.15"/>
<polygon fill="black" stroke="black" points="199.37,-46.22 199.3,-35.62 192.75,-43.95 199.37,-46.22"/>
</g>
<!-- nodo6 -->
<g id="node7" class="node">
<title>nodo6</title>
<ellipse fill="none" stroke="black" cx="284" cy="-18" rx="34.39" ry="18"/>
<text text-anchor="middle" x="284" y="-14.3" font-family="Times,serif" font-size="14.00">double</text>
</g>
<!-- nodo5&#45;&gt;nodo6 -->
<g id="edge6" class="edge">
<title>nodo5&#45;&gt;nodo6</title>
<path fill="none" stroke="black" d="M377.24,-72.94C358.69,-62.21 334.26,-48.08 315.06,-36.97"/>
<polygon fill="black" stroke="black" points="316.78,-33.92 306.38,-31.94 313.28,-39.98 316.78,-33.92"/>
</g>
<!-- nodo7 -->
<g id="node8" class="node">
<title>nodo7</title>
<ellipse fill="none" stroke="black" cx="381" cy="-18" rx="44.39" ry="18"/>
<text text-anchor="middle" x="381" y="-14.3" font-family="Times,serif" font-size="14.00">varible_2</text>
</g>
<!-- nodo5&#45;&gt;nodo7 -->
<g id="edge7" class="edge">
<title>nodo5&#45;&gt;nodo7</title>
<path fill="none" stroke="black" d="M399.07,-71.7C396.39,-63.9 393.17,-54.51 390.2,-45.83"/>
<polygon fill="black" stroke="black" points="393.42,-44.43 386.86,-36.1 386.8,-46.7 393.42,-44.43"/>
</g>
<!-- nodo8 -->
<g id="node9" class="node">
<title>nodo8</title>
<ellipse fill="none" stroke="black" cx="470" cy="-18" rx="27" ry="18"/>
</g>
<!-- nodo5&#45;&gt;nodo8 -->
<g id="edge8" class="edge">
<title>nodo5&#45;&gt;nodo8</title>
<path fill="none" stroke="black" d="M420.73,-72.05C429.27,-62.86 439.94,-51.38 449.16,-41.45"/>
<polygon fill="black" stroke="black" points="451.94,-43.6 456.18,-33.89 446.81,-38.83 451.94,-43.6"/>
</g>
<!-- nodo10 -->
<g id="node11" class="node">
<title>nodo10</title>
<ellipse fill="none" stroke="black" cx="553" cy="-18" rx="38.19" ry="18"/>
<text text-anchor="middle" x="553" y="-14.3" font-family="Times,serif" font-size="14.00">boolean</text>
</g>
<!-- nodo9&#45;&gt;nodo10 -->
<g id="edge10" class="edge">
<title>nodo9&#45;&gt;nodo10</title>
<path fill="none" stroke="black" d="M630.32,-72.59C615.99,-62.66 597.6,-49.91 582.35,-39.34"/>
<polygon fill="black" stroke="black" points="584.01,-36.23 573.79,-33.41 580.02,-41.98 584.01,-36.23"/>
</g>
<!-- nodo11 -->
<g id="node12" class="node">
<title>nodo11</title>
<ellipse fill="none" stroke="black" cx="654" cy="-18" rx="44.39" ry="18"/>
<text text-anchor="middle" x="654" y="-14.3" font-family="Times,serif" font-size="14.00">varible_3</text>
</g>
<!-- nodo9&#45;&gt;nodo11 -->
<g id="edge11" class="edge">
<title>nodo9&#45;&gt;nodo11</title>
<path fill="none" stroke="black" d="M654,-71.7C654,-63.98 654,-54.71 654,-46.11"/>
<polygon fill="black" stroke="black" points="657.5,-46.1 654,-36.1 650.5,-46.1 657.5,-46.1"/>
</g>
<!-- nodo12 -->
<g id="node13" class="node">
<title>nodo12</title>
<ellipse fill="none" stroke="black" cx="743" cy="-18" rx="27" ry="18"/>
</g>
<!-- nodo9&#45;&gt;nodo12 -->
<g id="edge12" class="edge">
<title>nodo9&#45;&gt;nodo12</title>
<path fill="none" stroke="black" d="M675.09,-72.41C688.03,-62.23 704.67,-49.15 718.23,-38.48"/>
<polygon fill="black" stroke="black" points="720.52,-41.13 726.22,-32.2 716.2,-35.63 720.52,-41.13"/>
</g>
<!-- nodo14 -->
<g id="node15" class="node">
<title>nodo14</title>
<ellipse fill="none" stroke="black" cx="815" cy="-18" rx="27" ry="18"/>
<text text-anchor="middle" x="815" y="-14.3" font-family="Times,serif" font-size="14.00">char</text>
</g>
<!-- nodo13&#45;&gt;nodo14 -->
<g id="edge14" class="edge">
<title>nodo13&#45;&gt;nodo14</title>
<path fill="none" stroke="black" d="M849.86,-72.05C844.22,-63.47 837.27,-52.89 831.06,-43.44"/>
<polygon fill="black" stroke="black" points="833.82,-41.26 825.4,-34.83 827.97,-45.11 833.82,-41.26"/>
</g>
<!-- nodo15 -->
<g id="node16" class="node">
<title>nodo15</title>
<ellipse fill="none" stroke="black" cx="904" cy="-18" rx="44.39" ry="18"/>
<text text-anchor="middle" x="904" y="-14.3" font-family="Times,serif" font-size="14.00">varible_4</text>
</g>
<!-- nodo13&#45;&gt;nodo15 -->
<g id="edge15" class="edge">
<title>nodo13&#45;&gt;nodo15</title>
<path fill="none" stroke="black" d="M871.41,-72.05C876.48,-63.8 882.68,-53.7 888.31,-44.54"/>
<polygon fill="black" stroke="black" points="891.43,-46.14 893.69,-35.79 885.47,-42.48 891.43,-46.14"/>
</g>
<!-- nodo16 -->
<g id="node17" class="node">
<title>nodo16</title>
<ellipse fill="none" stroke="black" cx="993" cy="-18" rx="27" ry="18"/>
</g>
<!-- nodo13&#45;&gt;nodo16 -->
<g id="edge16" class="edge">
<title>nodo13&#45;&gt;nodo16</title>
<path fill="none" stroke="black" d="M890.95,-73.12C912.69,-61.59 941.94,-46.08 963.56,-34.61"/>
<polygon fill="black" stroke="black" points="965.41,-37.59 972.6,-29.82 962.13,-31.41 965.41,-37.59"/>
</g>
<!-- nodo18 -->
<g id="node19" class="node">
<title>nodo18</title>
<ellipse fill="none" stroke="black" cx="1069" cy="-18" rx="30.59" ry="18"/>
<text text-anchor="middle" x="1069" y="-14.3" font-family="Times,serif" font-size="14.00">string</text>
</g>
<!-- nodo17&#45;&gt;nodo18 -->
<g id="edge18" class="edge">
<title>nodo17&#45;&gt;nodo18</title>
<path fill="none" stroke="black" d="M1103.86,-72.05C1098.3,-63.59 1091.47,-53.19 1085.33,-43.84"/>
<polygon fill="black" stroke="black" points="1088.13,-41.74 1079.72,-35.31 1082.28,-45.59 1088.13,-41.74"/>
</g>
<!-- nodo19 -->
<g id="node20" class="node">
<title>nodo19</title>
<ellipse fill="none" stroke="black" cx="1162" cy="-18" rx="44.39" ry="18"/>
<text text-anchor="middle" x="1162" y="-14.3" font-family="Times,serif" font-size="14.00">varible_5</text>
</g>
<!-- nodo17&#45;&gt;nodo19 -->
<g id="edge19" class="edge">
<title>nodo17&#45;&gt;nodo19</title>
<path fill="none" stroke="black" d="M1126.38,-72.05C1131.98,-63.71 1138.84,-53.49 1145.05,-44.25"/>
<polygon fill="black" stroke="black" points="1148.06,-46.04 1150.73,-35.79 1142.25,-42.14 1148.06,-46.04"/>
</g>
<!-- nodo20 -->
<g id="node21" class="node">
<title>nodo20</title>
<ellipse fill="none" stroke="black" cx="1251" cy="-18" rx="27" ry="18"/>
</g>
<!-- nodo17&#45;&gt;nodo20 -->
<g id="edge20" class="edge">
<title>nodo17&#45;&gt;nodo20</title>
<path fill="none" stroke="black" d="M1145.86,-73.12C1168.35,-61.54 1198.67,-45.94 1220.96,-34.46"/>
<polygon fill="black" stroke="black" points="1222.69,-37.51 1229.98,-29.82 1219.49,-31.28 1222.69,-37.51"/>
</g>
</g>
</svg>
